<svg xmlns="http://www.w3.org/2000/svg" style="display: none;"><symbol id="whatsapp" viewBox="-1 0 512 512"><title>whatsapp</title><path d="m10.894531 512c-2.875 0-5.671875-1.136719-7.746093-3.234375-2.734376-2.765625-3.789063-6.78125-2.761719-10.535156l33.285156-121.546875c-20.722656-37.472656-31.648437-79.863282-31.632813-122.894532.058594-139.941406 113.941407-253.789062 253.871094-253.789062 67.871094.0273438 131.644532 26.464844 179.578125 74.433594 47.925781 47.972656 74.308594 111.742187 74.289063 179.558594-.0625 139.945312-113.945313 253.800781-253.867188 253.800781 0 0-.105468 0-.109375 0-40.871093-.015625-81.390625-9.976563-117.46875-28.84375l-124.675781 32.695312c-.914062.238281-1.84375.355469-2.761719.355469zm0 0" fill="#e5e5e5"/><path d="m10.894531 501.105469 34.46875-125.871094c-21.261719-36.839844-32.445312-78.628906-32.429687-121.441406.054687-133.933594 109.046875-242.898438 242.976562-242.898438 64.992188.027344 125.996094 25.324219 171.871094 71.238281 45.871094 45.914063 71.125 106.945313 71.101562 171.855469-.058593 133.929688-109.066406 242.910157-242.972656 242.910157-.007812 0 .003906 0 0 0h-.105468c-40.664063-.015626-80.617188-10.214844-116.105469-29.570313zm134.769531-77.75 7.378907 4.371093c31 18.398438 66.542969 28.128907 102.789062 28.148438h.078125c111.304688 0 201.898438-90.578125 201.945313-201.902344.019531-53.949218-20.964844-104.679687-59.09375-142.839844-38.132813-38.160156-88.832031-59.1875-142.777344-59.210937-111.394531 0-201.984375 90.566406-202.027344 201.886719-.015625 38.148437 10.65625 75.296875 30.875 107.445312l4.804688 7.640625-20.40625 74.5zm0 0" fill="#fff"/><path d="m19.34375 492.625 33.277344-121.519531c-20.53125-35.5625-31.324219-75.910157-31.3125-117.234375.050781-129.296875 105.273437-234.488282 234.558594-234.488282 62.75.027344 121.644531 24.449219 165.921874 68.773438 44.289063 44.324219 68.664063 103.242188 68.640626 165.898438-.054688 129.300781-105.28125 234.503906-234.550782 234.503906-.011718 0 .003906 0 0 0h-.105468c-39.253907-.015625-77.828126-9.867188-112.085938-28.539063zm0 0" fill="#64b161"/><g fill="#fff"><path d="m10.894531 501.105469 34.46875-125.871094c-21.261719-36.839844-32.445312-78.628906-32.429687-121.441406.054687-133.933594 109.046875-242.898438 242.976562-242.898438 64.992188.027344 125.996094 25.324219 171.871094 71.238281 45.871094 45.914063 71.125 106.945313 71.101562 171.855469-.058593 133.929688-109.066406 242.910157-242.972656 242.910157-.007812 0 .003906 0 0 0h-.105468c-40.664063-.015626-80.617188-10.214844-116.105469-29.570313zm134.769531-77.75 7.378907 4.371093c31 18.398438 66.542969 28.128907 102.789062 28.148438h.078125c111.304688 0 201.898438-90.578125 201.945313-201.902344.019531-53.949218-20.964844-104.679687-59.09375-142.839844-38.132813-38.160156-88.832031-59.1875-142.777344-59.210937-111.394531 0-201.984375 90.566406-202.027344 201.886719-.015625 38.148437 10.65625 75.296875 30.875 107.445312l4.804688 7.640625-20.40625 74.5zm0 0"/><path d="m195.183594 152.246094c-4.546875-10.109375-9.335938-10.3125-13.664063-10.488282-3.539062-.152343-7.589843-.144531-11.632812-.144531-4.046875 0-10.625 1.523438-16.1875 7.597657-5.566407 6.074218-21.253907 20.761718-21.253907 50.632812 0 29.875 21.757813 58.738281 24.792969 62.792969 3.035157 4.050781 42 67.308593 103.707031 91.644531 51.285157 20.226562 61.71875 16.203125 72.851563 15.191406 11.132813-1.011718 35.917969-14.6875 40.976563-28.863281 5.0625-14.175781 5.0625-26.324219 3.542968-28.867187-1.519531-2.527344-5.566406-4.046876-11.636718-7.082032-6.070313-3.035156-35.917969-17.726562-41.484376-19.75-5.566406-2.027344-9.613281-3.035156-13.660156 3.042969-4.050781 6.070313-15.675781 19.742187-19.21875 23.789063-3.542968 4.058593-7.085937 4.566406-13.15625 1.527343-6.070312-3.042969-25.625-9.449219-48.820312-30.132812-18.046875-16.089844-30.234375-35.964844-33.777344-42.042969-3.539062-6.070312-.058594-9.070312 2.667969-12.386719 4.910156-5.972656 13.148437-16.710937 15.171875-20.757812 2.023437-4.054688 1.011718-7.597657-.503906-10.636719-1.519532-3.035156-13.320313-33.058594-18.714844-45.066406zm0 0" fill-rule="evenodd"/></g></symbol><symbol id="facebook" viewBox="0 0 512 512"><title>facebook</title><path style="fill:#1976D2;" d="M448,0H64C28.704,0,0,28.704,0,64v384c0,35.296,28.704,64,64,64h384c35.296,0,64-28.704,64-64V64 C512,28.704,483.296,0,448,0z"/><path style="fill:#FAFAFA;" d="M432,256h-80v-64c0-17.664,14.336-16,32-16h32V96h-64l0,0c-53.024,0-96,42.976-96,96v64h-64v80h64 v176h96V336h48L432,256z"/></symbol><symbol id="gmail" viewBox="0 0 512 512"><title>gmail</title><g> <polygon style="fill:#F2F2F2;" points="484.973,122.808 452.288,451.017 59.712,451.017 33.379,129.16 256,253.802 "/> <polygon style="fill:#F2F2F2;" points="473.886,60.983 256,265.659 38.114,60.983 256,60.983 "/> </g><path style="fill:#F14336;" d="M59.712,155.493v295.524H24.139C10.812,451.017,0,440.206,0,426.878V111.967l39,1.063L59.712,155.493 z"/><path style="fill:#D32E2A;" d="M512,111.967v314.912c0,13.327-10.812,24.139-24.152,24.139h-35.56V155.493l19.692-46.525 L512,111.967z"/><path style="fill:#F14336;" d="M512,85.122v26.845l-59.712,43.526L256,298.561L59.712,155.493L0,111.967V85.122 c0-13.327,10.812-24.139,24.139-24.139h13.975L256,219.792L473.886,60.983h13.962C501.188,60.983,512,71.794,512,85.122z"/><polygon style="fill:#D32E2A;" points="59.712,155.493 0,146.235 0,111.967 "/></symbol><symbol id="llamar" viewBox="0 0 512.076 512.076"><title>llamar</title><g transform="translate(-1 -1)"> <g transform="translate(2 2)"> <path style="fill:#558B30;" d="M499.423,430.246l-26.027,43.349c-4.39,7.359-10.476,13.561-17.749,18.091 c-4.15,2.614-8.665,4.598-13.397,5.888c-43.179,11.861-138.496,14.336-291.243-138.496S0.649,111.014,12.511,67.835 c1.29-4.732,3.274-9.247,5.888-13.397c4.53-7.274,10.732-13.359,18.091-17.749l43.349-26.027 c9.899-5.927,22.707-3.035,29.099,6.571l37.632,56.32l31.488,47.275c6.226,9.447,4.187,22.088-4.693,29.099l-10.411,8.107 l-28.416,22.016c-8.363,6.532-10.781,18.151-5.717,27.477c11.435,20.48,22.187,44.629,75.605,98.133s77.653,64.171,98.133,75.605 c9.326,5.063,20.945,2.646,27.477-5.717l22.016-28.416l8.107-10.411c7.011-8.881,19.651-10.919,29.099-4.693l48.725,32.512 l54.869,36.608C502.457,407.538,505.349,420.347,499.423,430.246z"/> <path style="fill:#8BC34A;" d="M482.356,447.312l-26.027,43.349c-0.256,0.341-0.427,0.683-0.683,1.024 c-4.15,2.614-8.665,4.598-13.397,5.888c-43.179,11.861-138.496,14.336-291.243-138.496S0.649,111.014,12.511,67.835 c1.29-4.732,3.274-9.247,5.888-13.397c0.341-0.256,0.683-0.427,1.024-0.683l43.349-26.027c9.899-5.927,22.707-3.035,29.099,6.571 l37.632,56.32l31.488,47.275c6.15,9.464,4.12,22.049-4.693,29.099l-28.587,22.187l-10.24,7.936 c-8.382,6.52-10.803,18.155-5.717,27.477c11.435,20.48,22.187,44.629,75.605,98.133s77.653,64.171,98.133,75.605 c9.323,5.086,20.957,2.665,27.477-5.717l7.936-10.24l22.187-28.587c7.05-8.814,19.635-10.843,29.099-4.693l48.725,32.512 l54.869,36.608C485.391,424.605,488.283,437.414,482.356,447.312z"/> </g> <g> <path d="M406.413,513.056c13.543,0.058,27.033-1.704,40.107-5.239c15.212-4.264,28.18-14.256,36.181-27.878l26.061-43.315 c8.301-13.791,4.282-31.672-9.122-40.585l-103.646-69.12c-13.153-8.701-30.785-5.838-40.508,6.579l-30.191,38.818 c-3.881,5.116-10.933,6.6-16.546,3.482l-5.743-3.166c-19.038-10.377-42.726-23.296-90.453-71.04 c-47.727-47.744-60.672-71.45-71.049-90.453l-3.149-5.743c-3.161-5.612-1.705-12.695,3.413-16.606l38.793-30.182 c12.412-9.725,15.279-27.351,6.588-40.508l-69.12-103.646C109.12,1.056,91.25-2.966,77.461,5.323L34.12,31.358 C20.502,39.364,10.511,52.33,6.242,67.539c-15.607,56.866-3.866,155.008,140.706,299.597 C261.952,482.131,347.567,513.056,406.413,513.056z M22.703,72.054c3.116-10.968,10.354-20.307,20.198-26.061l43.341-26.001 c5.983-3.6,13.739-1.855,17.604,3.959l37.547,56.371l31.514,47.266c3.774,5.707,2.534,13.356-2.85,17.579l-38.801,30.182 c-11.808,9.029-15.18,25.366-7.91,38.332l3.081,5.598c10.906,20.002,24.465,44.885,73.967,94.379s74.377,63.053,94.37,73.958 l5.606,3.089c12.966,7.269,29.303,3.898,38.332-7.91l30.182-38.801c4.224-5.381,11.87-6.62,17.579-2.85l103.637,69.12 c5.819,3.863,7.564,11.622,3.959,17.604l-26.001,43.341c-5.746,9.832-15.072,17.061-26.027,20.173 c-52.497,14.413-144.213,2.475-283.008-136.32S8.29,124.559,22.703,72.054z"/> <path d="M291.161,86.39c80.081,0.089,144.977,64.986,145.067,145.067c0,4.713,3.821,8.533,8.533,8.533 c4.713,0,8.533-3.821,8.533-8.533c-0.099-89.503-72.631-162.035-162.133-162.133c-4.713,0-8.533,3.82-8.533,8.533 C282.628,82.569,286.448,86.39,291.161,86.39z"/> <path d="M291.161,137.59c51.816,0.061,93.806,42.051,93.867,93.867c0,4.713,3.82,8.533,8.533,8.533s8.533-3.821,8.533-8.533 c-0.071-61.238-49.696-110.863-110.933-110.933c-4.713,0-8.533,3.821-8.533,8.533C282.628,133.769,286.448,137.59,291.161,137.59z "/> <path d="M291.161,188.79c23.552,0.028,42.638,19.114,42.667,42.667c0,4.713,3.82,8.533,8.533,8.533s8.533-3.821,8.533-8.533 c-0.038-32.974-26.759-59.696-59.733-59.733c-4.713,0-8.533,3.821-8.533,8.533S286.448,188.79,291.161,188.79z"/> </g> </g></symbol><symbol id="llamar-1" viewBox="0 0 512.076 512.076"><title>llamar-1</title><g transform="translate(-1 -1)"> <g transform="translate(2 2)"> <path style="fill:#FFB301;" d="M502.495,255.056c0,136.672-110.795,247.467-247.467,247.467c-4.267,0-8.533-0.085-12.715-0.341 h-0.171C110.701,495.271,7.669,386.679,7.669,255.056S110.701,14.842,242.143,7.931h0.171c4.181-0.256,8.448-0.341,12.715-0.341 C391.7,7.59,502.495,118.384,502.495,255.056z"/> <path style="fill:#FEC108;" d="M476.895,255.056c-0.003,131.662-103.098,240.27-234.581,247.125h-0.171 C110.701,495.271,7.669,386.679,7.669,255.056S110.701,14.842,242.143,7.931h0.171 C373.797,14.786,476.892,123.394,476.895,255.056z"/> <path style="fill:#558B30;" d="M499.423,430.246l-26.027,43.349c-4.39,7.359-10.476,13.561-17.749,18.091 c-4.15,2.614-8.665,4.598-13.397,5.888c-43.179,11.861-138.496,14.336-291.243-138.496S0.649,111.014,12.511,67.835 c1.29-4.732,3.274-9.247,5.888-13.397c4.53-7.274,10.732-13.359,18.091-17.749l43.349-26.027 c9.899-5.927,22.707-3.035,29.099,6.571l37.632,56.32l31.488,47.275c6.226,9.447,4.187,22.088-4.693,29.099l-10.411,8.107 l-28.416,22.016c-8.363,6.532-10.781,18.151-5.717,27.477c11.435,20.48,22.187,44.629,75.605,98.133s77.653,64.171,98.133,75.605 c9.326,5.063,20.945,2.646,27.477-5.717l22.016-28.416l8.107-10.411c7.011-8.881,19.651-10.919,29.099-4.693l48.725,32.512 l54.869,36.608C502.457,407.538,505.349,420.347,499.423,430.246z"/> <path style="fill:#8BC34A;" d="M482.356,447.312l-26.027,43.349c-0.256,0.341-0.427,0.683-0.683,1.024 c-4.15,2.614-8.665,4.598-13.397,5.888c-43.179,11.861-138.496,14.336-291.243-138.496S0.649,111.014,12.511,67.835 c1.29-4.732,3.274-9.247,5.888-13.397c0.341-0.256,0.683-0.427,1.024-0.683l43.349-26.027c9.899-5.927,22.707-3.035,29.099,6.571 l37.632,56.32l31.488,47.275c6.15,9.464,4.12,22.049-4.693,29.099l-28.587,22.187l-10.24,7.936 c-8.382,6.52-10.803,18.155-5.717,27.477c11.435,20.48,22.187,44.629,75.605,98.133s77.653,64.171,98.133,75.605 c9.323,5.086,20.957,2.665,27.477-5.717l7.936-10.24l22.187-28.587c7.05-8.814,19.635-10.843,29.099-4.693l48.725,32.512 l54.869,36.608C485.391,424.605,488.283,437.414,482.356,447.312z"/> </g> <path d="M258.052,2.08c-4.713,0-8.533,3.821-8.533,8.533s3.82,8.533,8.533,8.533c84.458-0.063,162.608,44.69,205.298,117.566 s43.507,162.929,2.148,236.568l-69.538-46.362c-13.154-8.697-30.782-5.834-40.508,6.579l-30.157,38.818 c-3.883,5.113-10.932,6.596-16.546,3.482l-5.743-3.166c-19.038-10.377-42.726-23.296-90.453-71.04 c-47.727-47.744-60.672-71.45-71.049-90.453l-3.149-5.743c-3.161-5.612-1.705-12.695,3.413-16.606l38.793-30.182 c12.412-9.725,15.279-27.351,6.588-40.508l-69.12-103.646C109.12,1.056,91.25-2.966,77.461,5.323L34.12,31.358 C20.502,39.364,10.511,52.33,6.242,67.539c-15.607,56.866-3.866,155.008,140.706,299.597 c62.976,62.976,117.12,100.693,162.901,122.027c-70.464,15.921-144.343-1.121-200.714-46.297s-89.096-113.57-88.907-185.809 c0-4.713-3.821-8.533-8.533-8.533s-8.533,3.821-8.533,8.533c0.132,140.731,114.159,254.797,254.891,254.976 c26.365,0.009,52.569-4.12,77.653-12.237c22.631,8.453,46.551,12.939,70.707,13.261c13.543,0.058,27.033-1.704,40.107-5.239 c15.212-4.264,28.18-14.256,36.181-27.878l26.061-43.315c8.301-13.791,4.282-31.672-9.122-40.585l-19.891-13.252 c44.859-78.9,44.358-175.706-1.315-254.138S348.813,2.005,258.052,2.08z M494.092,427.842l-26.001,43.341 c-5.749,9.849-15.089,17.088-26.061,20.198c-24.823,6.827-58.445,7.68-101.649-7.893c-0.685-0.384-1.421-0.671-2.185-0.853 c-47.787-17.741-107.119-55.552-179.2-127.607C20.245,216.284,8.29,124.559,22.703,72.054 c3.116-10.968,10.354-20.307,20.198-26.061l43.341-26.001c5.983-3.6,13.739-1.855,17.604,3.959l37.547,56.371l31.514,47.266 c3.774,5.707,2.534,13.356-2.85,17.579l-38.801,30.182c-11.808,9.029-15.18,25.366-7.91,38.332l3.081,5.598 c10.906,20.002,24.465,44.885,73.967,94.379s74.377,63.053,94.37,73.958l5.606,3.089c12.966,7.269,29.303,3.898,38.332-7.91 l30.182-38.801c4.224-5.381,11.87-6.62,17.579-2.85l103.637,69.12C495.915,414.114,497.674,421.857,494.092,427.842z"/> </g></symbol><symbol id="pantalla-de-la-computadora" viewBox="0 0 512 512"><title>pantalla-de-la-computadora</title><path d="m290.57 408.5-99.14 30-3.19 11.15c-4.53 15.87-21.74 28.85-38.24 28.85h182z" fill="#3d5168"/><path d="m323.76 449.65-11.76-41.15-56-30-56 30-8.57 30h99.14l3.19 11.15c4.53 15.87 21.74 28.85 38.24 28.85h30c-16.5 0-33.71-12.98-38.24-28.85z" fill="#233952"/><path d="m474.5 33.5h-30v375h30c16.5 0 30-13.5 30-30v-315c0-16.5-13.5-30-30-30z" fill="#3d5168"/><path d="m444.5 33.5h-407c-16.5 0-30 13.5-30 30v315c0 16.5 13.5 30 30 30h407c16.5 0 30-13.5 30-30v-30l-218.5-142.5 218.5-142.5c0-16.5-13.5-30-30-30z" fill="#57697d"/><path d="m474.5 63.5-29.994-.027c0 .007-188.506 142.5-188.506 142.5s188.502 142.497 188.5 142.5c0 0 29.999-.025 29.999-.025.001.001-.002-284.942.001-284.948z" fill="#1e8aff"/><path d="m444.5 63.5-406.912-.027c-.024.014-.045 284.994-.088 285 0 0 406.98-.025 406.99-.025.005.001-.032-284.942.01-284.948z" fill="#54a5ff"/><path d="m474.5 26h-437c-20.678 0-37.5 16.822-37.5 37.5v315c0 20.678 16.822 37.5 37.5 37.5h152.557l-9.027 31.594c-3.625 12.687-17.835 23.406-31.03 23.406h-49c-4.142 0-7.5 3.358-7.5 7.5s3.358 7.5 7.5 7.5h310c4.142 0 7.5-3.358 7.5-7.5s-3.358-7.5-7.5-7.5h-49c-13.195 0-27.405-10.719-31.03-23.406l-9.027-31.594h152.557c20.678 0 37.5-16.822 37.5-37.5v-315c0-20.678-16.822-37.5-37.5-37.5zm-157.953 425.715c2.058 7.204 6.149 13.824 11.512 19.285h-144.118c5.363-5.461 9.454-12.081 11.512-19.285l10.204-35.715h100.685zm180.453-73.215c0 12.407-10.093 22.5-22.5 22.5h-437c-12.407 0-22.5-10.093-22.5-22.5v-315c0-12.407 10.093-22.5 22.5-22.5h437c12.407 0 22.5 10.093 22.5 22.5z"/><path d="m482 348.5v-285c0-4.142-3.358-7.5-7.5-7.5h-437c-4.142 0-7.5 3.358-7.5 7.5v127.5c0 4.142 3.358 7.5 7.5 7.5s7.5-3.358 7.5-7.5v-120h422v270h-422v-120c0-4.142-3.358-7.5-7.5-7.5s-7.5 3.358-7.5 7.5v127.5c0 4.142 3.358 7.5 7.5 7.5h437c4.142 0 7.5-3.358 7.5-7.5z"/><circle cx="475.18" cy="378.473" r="7.5"/><circle cx="445.18" cy="378.473" r="7.5"/></symbol><symbol id="ordenador" viewBox="0 0 512 512"><title>ordenador</title><path d="m462.25 10h-412c-22.089844 0-40 17.910156-40 40v266h492v-266c0-22.089844-17.910156-40-40-40zm0 0" fill="#fff"/><path d="m502.25 316v40c0 22.089844-17.910156 40-40 40-18.03125 0-391.894531 0-412 0-22.089844 0-40-17.910156-40-40v-40zm0 0" fill="#3a5361"/><path d="m436.25 316h-80v-240h80zm0 0" fill="#f6d465"/><path d="m356.25 502h-200c0-22.078125 17.917969-40 40-40h120c22.089844 0 40 17.910156 40 40zm0 0" fill="#3a5361"/><path d="m292.570312 135.339844c15.246094 26.449218-3.757812 59.96875-34.660156 59.96875-30.980468 0-49.871094-33.597656-34.671875-59.96875l34.671875-60.03125zm0 0" fill="#f6d465"/><path d="m216.25 396h80v66h-80zm0 0" fill="#3a5361"/><path d="m286.25 316h-60c0-14.441406.339844-27.800781.890625-40h58.257813c.53125 12.148438.851562 25.5.851562 40zm0 0" fill="#3a5361"/><path d="m116.25 76 40 80c-9.679688 0-70.257812 0-80 0zm0 0" fill="#f6d465"/><path d="m76.25 156v160h80v-160c-9.679688 0-70.257812 0-80 0zm0 0" fill="#6eba7b"/><path d="m316 346c-5.519531 0-10 4.480469-10 10s4.480469 10 10 10 10-4.480469 10-10-4.480469-10-10-10zm0 0"/><path d="m462 0h-412c-27.570312 0-50 22.429688-50 50v306c0 27.570312 22.429688 50 50 50h156v46h-10c-13.351562 0-25.902344 5.203125-35.351562 14.648438-9.445313 9.449218-14.648438 22-14.648438 35.351562 0 5.523438 4.476562 10 10 10h200c5.523438 0 10-4.476562 10-10 0-27.570312-22.429688-50-50-50h-10v-46h156c27.570312 0 50-22.429688 50-50v-306c0-27.570312-22.429688-50-50-50zm-412 20h412c16.542969 0 30 13.457031 30 30v256h-46v-230c0-5.523438-4.476562-10-10-10h-80c-5.523438 0-10 4.476562-10 10v230h-50.054688c-.105468-10.34375-.375-20.539062-.804687-30.429688-1.75-40.726562-5.738281-68.007812-7.8125-80.007812 20.632813-15.191406 26.265625-43.347656 13.652344-65.222656l-34.660157-60.03125c-1.789062-3.09375-5.089843-5-8.660156-5-3.574218 0-6.875 1.90625-8.660156 5l-34.675781 60.035156c-11.890625 20.625-7.675781 47.339844 11.003906 63.105469-2.164063 11.964843-6.53125 40.222656-8.429687 82.101562-.449219 9.996094-.734376 20.199219-.84375 30.449219h-50.054688v-150c0-1.585938-.375-3.03125-.988281-4.316406-.027344-.050782-.042969-.105469-.066407-.15625l-40-80c-1.695312-3.386719-5.15625-5.527344-8.945312-5.527344s-7.25 2.140625-8.945312 5.527344l-40 80c-.023438.050781-.039063.105468-.0625.15625-.625 1.296875-.992188 2.765625-.992188 4.316406v150h-46v-256c0-16.542969 13.457031-30 30-30zm316 286v-220h60v20h-10c-5.523438 0-10 4.476562-10 10s4.476562 10 10 10h10v30h-10c-5.523438 0-10 4.476562-10 10s4.476562 10 10 10h10v30h-10c-5.523438 0-10 4.476562-10 10s4.476562 10 10 10h10v40h-10c-5.523438 0-10 4.476562-10 10s4.476562 10 10 10h10v20zm-108.339844-100.691406c3.632813 0 7.25-.417969 10.789063-1.199219 1.855469 11.894531 4.582031 32.941406 6.195312 61.890625h-37.222656c1.691406-28.929688 4.546875-50.304688 6.519531-62.601562 4.429688 1.261718 9.042969 1.910156 13.71875 1.910156zm0-20c-22.855468 0-37.59375-24.875-26.011718-44.96875l26.011718-45.03125 25.996094 45.027344c11.539062 20.011718-2.996094 44.972656-25.996094 44.972656zm-21.15625 100.691406h39.019532c.210937 6.570312.355468 13.253906.425781 20h-39.894531c.074218-6.703125.226562-13.386719.449218-20zm-110.503906 20v-140h20v140zm-40 0v-140h20v140zm6.179688-160 23.820312-47.640625 23.820312 47.640625zm252.105468 346h-176.582031c1.46875-4.167969 3.867187-7.988281 7.085937-11.210938 5.671876-5.667968 13.203126-8.789062 21.210938-8.789062h120c13.039062 0 24.160156 8.359375 28.285156 20zm-58.285156-40h-60v-46h60zm176-66h-412c-16.542969 0-30-13.457031-30-30v-30h472v30c0 16.542969-13.457031 30-30 30zm0 0"/><path d="m276 346h-60c-5.523438 0-10 4.476562-10 10s4.476562 10 10 10h60c5.523438 0 10-4.476562 10-10s-4.476562-10-10-10zm0 0"/></symbol><symbol id="web" viewBox="0 0 512 512"><title>web</title><path d="m186.277344 421.03125h138.875v41.859375h-138.875zm0 0" fill="#5a5a5a"/><path d="m478.453125 421.03125h-445.472656c-14.078125 0-25.488281-11.410156-25.488281-25.484375v-362.566406c0-14.078125 11.410156-25.488281 25.488281-25.488281h445.472656c14.074219 0 25.484375 11.410156 25.484375 25.488281v362.566406c0 14.074219-11.410156 25.484375-25.484375 25.484375zm0 0" fill="#ffd86e"/><path d="m503.941406 32.980469v362.566406c0 14.074219-11.410156 25.484375-25.484375 25.484375h-31.132812c14.078125 0 25.484375-11.410156 25.484375-25.484375v-362.566406c0-14.074219-11.40625-25.484375-25.484375-25.484375h31.132812c14.074219 0 25.484375 11.410156 25.484375 25.484375zm0 0" fill="#ffb509"/><path d="m503.9375 359.628906h-496.445312v35.917969c0 14.074219 11.410156 25.484375 25.488281 25.484375h445.472656c14.074219 0 25.484375-11.410156 25.484375-25.484375zm0 0" fill="#838383"/><path d="m503.941406 359.628906v35.917969c0 14.074219-11.410156 25.484375-25.484375 25.484375h-31.132812c14.078125 0 25.484375-11.410156 25.484375-25.484375v-35.917969zm0 0" fill="#5a5a5a"/><path d="m504.507812 94.433594h-496.460937v-61.457032c0-14.074218 11.410156-25.484374 25.484375-25.484374h445.492188c14.074218 0 25.484374 11.410156 25.484374 25.484374zm0 0" fill="#acacac"/><path d="m504.796875 32.515625v61.464844h-31.703125v-61.464844c0-14.066406-11.410156-25.476563-25.488281-25.476563h31.703125c14.078125 0 25.488281 11.410157 25.488281 25.476563zm0 0" fill="#9c9c9c"/><path d="m69.757812 50.75c0 8.007812-6.488281 14.5-14.496093 14.5-8.007813 0-14.496094-6.492188-14.496094-14.5 0-8.003906 6.488281-14.496094 14.496094-14.496094 8.007812 0 14.496093 6.492188 14.496093 14.496094zm0 0" fill="#ff6b81"/><path d="m125.746094 50.75c0 8.007812-6.492188 14.5-14.496094 14.5-8.007812 0-14.5-6.492188-14.5-14.5 0-8.003906 6.492188-14.496094 14.5-14.496094 8.003906 0 14.496094 6.492188 14.496094 14.496094zm0 0" fill="#ffd86e"/><path d="m181.730469 50.75c0 8.007812-6.488281 14.5-14.496094 14.5-8.003906 0-14.496094-6.492188-14.496094-14.5 0-8.003906 6.492188-14.496094 14.496094-14.496094 8.007813 0 14.496094 6.492188 14.496094 14.496094zm0 0" fill="#80e0dc"/><path d="m69.753906 50.757812c0 8-6.484375 14.484376-14.488281 14.484376-3.875 0-7.402344-1.519532-10-4.003907 7.84375-.171875 14.15625-6.585937 14.15625-14.476562 0-4.136719-1.726563-7.855469-4.496094-10.492188.113281-.011719.230469-.011719.339844-.011719 8.003906 0 14.488281 6.484376 14.488281 14.5zm0 0" fill="#ff435f"/><path d="m125.742188 50.757812c0 8-6.484376 14.484376-14.496094 14.484376-3.875 0-7.394532-1.519532-10-4.003907 7.851562-.171875 14.167968-6.585937 14.167968-14.476562 0-4.136719-1.730468-7.855469-4.496093-10.492188.109375-.011719.21875-.011719.328125-.011719 8.011718 0 14.496094 6.484376 14.496094 14.5zm0 0" fill="#ffb509"/><path d="m181.734375 50.757812c0 8-6.496094 14.484376-14.5 14.484376-3.875 0-7.390625-1.519532-10-4.003907 7.855469-.171875 14.15625-6.585937 14.15625-14.476562 0-4.136719-1.726563-7.855469-4.496094-10.492188.113281-.011719.230469-.011719.339844-.011719 8.003906 0 14.5 6.484376 14.5 14.5zm0 0" fill="#00a8b0"/><path d="m370.152344 503.953125h-228.875c-2.757813 0-4.996094-2.234375-4.996094-4.996094v-16.1875c0-10.976562 8.902344-19.875 19.878906-19.875h199.113282c10.976562 0 19.875 8.898438 19.875 19.875v16.1875c0 2.761719-2.234376 4.996094-4.996094 4.996094zm0 0" fill="#838383"/><path d="m375.148438 482.765625v16.195313c0 2.757812-2.238282 4.996093-4.996094 4.996093h-17.632813v-21.191406c0-10.96875-8.902343-19.871094-19.871093-19.871094h22.628906c10.972656 0 19.871094 8.898438 19.871094 19.871094zm0 0" fill="#5a5a5a"/><path d="m203.566406 325.414062h-.589844c-7.699218 0-13.945312-6.242187-13.945312-13.945312v-43.179688c0-7.699218 6.242188-13.945312 13.945312-13.945312h.589844c7.703125 0 13.949219 6.242188 13.949219 13.945312v43.179688c0 7.703125-6.246094 13.945312-13.949219 13.945312zm0 0" fill="#ff6b81"/><path d="m468.992188 273.027344h-.589844c-7.703125 0-13.945313-6.242188-13.945313-13.945313v-43.179687c0-7.699219 6.242188-13.945313 13.945313-13.945313h.589844c7.703124 0 13.945312 6.242188 13.945312 13.945313v43.179687c0 7.703125-6.242188 13.945313-13.945312 13.945313zm0 0" fill="#ff6b81"/><path d="m217.519531 268.289062v43.183594c0 7.703125-6.246093 13.945313-13.949219 13.945313h-.589843c-2.375 0-4.613281-.589844-6.574219-1.636719 4.386719-2.359375 7.375-6.984375 7.375-12.308594v-43.183594c0-5.324218-2.988281-9.949218-7.375-12.296874 1.960938-1.058594 4.199219-1.648438 6.574219-1.648438h.589843c7.703126 0 13.949219 6.242188 13.949219 13.945312zm0 0" fill="#ff435f"/><path d="m482.9375 215.90625v43.171875c0 7.703125-6.242188 13.949219-13.945312 13.949219h-.589844c-2.367188 0-4.605469-.589844-6.5625-1.640625 4.382812-2.359375 7.363281-6.984375 7.363281-12.308594v-43.171875c0-5.324219-2.980469-9.949219-7.363281-12.308594 1.957031-1.046875 4.195312-1.636718 6.5625-1.636718h.589844c7.703124 0 13.945312 6.242187 13.945312 13.945312zm0 0" fill="#ff435f"/><path d="m184.351562 94.433594v104.761718c0 11.398438 9.238282 20.636719 20.636719 20.636719 11.394531 0 20.632813-9.238281 20.632813-20.636719v-26.460937c0-9.34375 7.574218-16.914063 16.914062-16.914063s16.910156 7.574219 16.910156 16.914063v135.554687h93.285157v-98.386718c0-8.914063 7.230469-16.144532 16.144531-16.144532 8.917969 0 16.144531 7.230469 16.144531 16.144532v14.121094c0 10.722656 8.691407 19.414062 19.414063 19.414062s19.414062-8.691406 19.414062-19.414062v-129.589844zm0 0" fill="#ff6b81"/><path d="m423.851562 94.4375v129.582031c0 5.367188-2.175781 10.210938-5.683593 13.726563-3.515625 3.507812-8.371094 5.6875-13.738281 5.6875-2.9375 0-5.734376-.660156-8.230469-1.839844 2.046875-.957031 3.90625-2.269531 5.484375-3.847656 3.503906-3.515625 5.683594-8.359375 5.683594-13.726563v-129.582031zm0 0" fill="#ff435f"/><path d="m259.445312 308.054688h93.289063v62.746093h-93.289063zm0 0" fill="#80e0dc"/><path d="m352.734375 370.5625h-93.289063v19.492188c0 8.074218 6.546876 14.621093 14.625 14.621093h.339844c8.078125 0 14.625 6.546875 14.625 14.621094v58.574219c0 9.421875 7.636719 17.054687 17.054688 17.054687 9.417968 0 17.054687-7.632812 17.054687-17.054687v-58.574219c0-8.074219 6.546875-14.621094 14.625-14.621094h.339844c8.078125 0 14.625-6.546875 14.625-14.621093zm0 0" fill="#e7e7e7"/><path d="m55.261719 28.761719c-12.125 0-21.988281 9.867187-21.988281 21.992187s9.863281 21.988282 21.988281 21.988282 21.992187-9.863282 21.992187-21.988282-9.867187-21.992187-21.992187-21.992187zm0 28.992187c-3.859375 0-7.003907-3.140625-7.003907-7.003906 0-3.859375 3.144532-7.003906 7.003907-7.003906 3.863281 0 7.003906 3.144531 7.003906 7.003906 0 3.863281-3.140625 7.003906-7.003906 7.003906zm0 0"/><path d="m111.25 28.761719c-12.125 0-21.992188 9.867187-21.992188 21.992187s9.867188 21.988282 21.992188 21.988282 21.988281-9.863282 21.988281-21.988282-9.863281-21.992187-21.988281-21.992187zm0 28.992187c-3.863281 0-7.003906-3.140625-7.003906-7.003906 0-3.859375 3.140625-7.003906 7.003906-7.003906 3.859375 0 7.003906 3.144531 7.003906 7.003906 0 3.863281-3.144531 7.003906-7.003906 7.003906zm0 0"/><path d="m167.234375 28.761719c-12.125 0-21.988281 9.867187-21.988281 21.992187s9.863281 21.988282 21.988281 21.988282 21.988281-9.863282 21.988281-21.988282-9.863281-21.992187-21.988281-21.992187zm0 28.992187c-3.859375 0-7.003906-3.140625-7.003906-7.003906 0-3.859375 3.144531-7.003906 7.003906-7.003906 3.863281 0 7.003906 3.144531 7.003906 7.003906 0 3.863281-3.140625 7.003906-7.003906 7.003906zm0 0"/><path d="m40.910156 136.789062h19.929688c4.140625 0 7.496094-3.355468 7.496094-7.492187 0-4.140625-3.355469-7.496094-7.496094-7.496094h-19.929688c-4.136718 0-7.492187 3.355469-7.492187 7.496094 0 4.136719 3.355469 7.492187 7.492187 7.492187zm0 0"/><path d="m116.34375 129.296875c0-4.140625-3.355469-7.496094-7.496094-7.496094h-22.6875c-4.140625 0-7.496094 3.355469-7.496094 7.496094 0 4.136719 3.355469 7.492187 7.496094 7.492187h22.6875c4.140625 0 7.496094-3.355468 7.496094-7.492187zm0 0"/><path d="m152.738281 154.773438h-58.878906c-4.136719 0-7.492187 3.351562-7.492187 7.492187s3.355468 7.492187 7.492187 7.492187h58.878906c4.136719 0 7.492188-3.351562 7.492188-7.492187s-3.351563-7.492187-7.492188-7.492187zm0 0"/><path d="m69.757812 154.773438h-28.847656c-4.136718 0-7.492187 3.351562-7.492187 7.492187s3.355469 7.492187 7.492187 7.492187h28.847656c4.140626 0 7.496094-3.351562 7.496094-7.492187s-3.359375-7.492187-7.496094-7.492187zm0 0"/><path d="m203.566406 246.851562h-.589844c-11.820312 0-21.4375 9.617188-21.4375 21.441407v43.175781c0 11.820312 9.617188 21.4375 21.4375 21.4375h.589844c11.824219 0 21.441406-9.617188 21.441406-21.4375v-43.175781c0-11.824219-9.617187-21.441407-21.441406-21.441407zm6.453125 64.617188c0 3.558594-2.894531 6.453125-6.453125 6.453125h-.589844c-3.554687 0-6.449218-2.894531-6.449218-6.453125v-43.175781c0-3.558594 2.894531-6.453125 6.449218-6.453125h.589844c3.558594 0 6.453125 2.894531 6.453125 6.453125zm0 0"/><path d="m468.402344 280.519531h.589844c11.820312 0 21.4375-9.617187 21.4375-21.4375v-43.175781c0-11.824219-9.617188-21.441406-21.4375-21.441406h-.589844c-11.820313 0-21.4375 9.617187-21.4375 21.441406v43.175781c0 11.820313 9.617187 21.4375 21.4375 21.4375zm-6.453125-64.613281c0-3.558594 2.894531-6.453125 6.453125-6.453125h.589844c3.558593 0 6.453124 2.894531 6.453124 6.453125v43.175781c0 3.558594-2.894531 6.453125-6.453124 6.453125h-.589844c-3.558594 0-6.453125-2.894531-6.453125-6.453125zm0 0"/><path d="m479.023438 0h-446.042969c-18.1875 0-32.980469 14.792969-32.980469 32.980469v362.566406c0 18.183594 14.792969 32.976563 32.980469 32.976563h41.683593c4.136719 0 7.492188-3.351563 7.492188-7.492188 0-4.136719-3.355469-7.492188-7.492188-7.492188h-41.683593c-9.921875 0-17.992188-8.070312-17.992188-17.992187v-28.421875h236.964844v22.929688c0 12.195312 9.921875 22.117187 22.117187 22.117187h.339844c1.566406 0 3.007813.511719 4.1875 1.367187h-156.476562c-4.136719 0-7.492188 3.355469-7.492188 7.492188 0 4.140625 3.355469 7.496094 7.492188 7.496094h56.664062v26.871094h-22.625c-15.09375 0-27.371094 12.28125-27.371094 27.371093v16.191407c0 6.886718 5.601563 12.488281 12.488282 12.488281h228.875c6.886718 0 12.488281-5.601563 12.488281-12.488281v-16.191407c0-15.089843-12.277344-27.371093-27.371094-27.371093h-24.632812v-26.871094h147.816406c18.183594 0 32.976563-14.796875 32.976563-32.980469v-298.25c.367187-.882813.570312-1.847656.570312-2.863281v-61.457032c0-18.183593-14.792969-32.976562-32.976562-32.976562zm-227.070313 352.136719h-236.964844v-250.207031h161.871094v97.265624c0 15.511719 12.617187 28.128907 28.128906 28.128907 15.507813 0 28.128907-12.617188 28.128907-28.128907v-26.460937c0-5.195313 4.226562-9.417969 9.417968-9.417969s9.417969 4.222656 9.417969 9.417969zm-58.179687 76.386719h87.765624v26.875h-87.765624zm-49.996094 67.9375v-13.691407c0-6.828125 5.554687-12.382812 12.382812-12.382812h125.378906v7.484375c0 7.425781 3.320313 14.085937 8.542969 18.589844zm211.496094-26.074219c6.828124 0 12.382812 5.554687 12.382812 12.382812v13.691407h-45.558594c5.226563-4.503907 8.542969-11.164063 8.542969-18.589844v-7.484375zm-39.621094-51.089844v58.574219c0 5.273437-4.289063 9.5625-9.5625 9.5625-5.273438 0-9.5625-4.289063-9.5625-9.5625v-58.574219c0-12.195313-9.921875-22.117187-22.113282-22.117187h-.34375c-3.929687 0-7.128906-3.195313-7.128906-7.128907v-11.757812h78.300782v11.757812c0 3.933594-3.199219 7.128907-7.128907 7.128907h-.34375c-12.195312.003906-22.117187 9.921874-22.117187 22.117187zm-48.710938-56.226563v-47.285156h78.300782v47.285156zm229.503906 32.476563c0 9.921875-8.070312 17.992187-17.992187 17.992187h-144.867187c1.175781-.859374 2.617187-1.371093 4.183593-1.371093h.339844c12.195313 0 22.117187-9.921875 22.117187-22.113281v-22.929688h136.21875zm0-43.410156h-136.21875v-81.09375c0-4.136719-3.355468-7.492188-7.492187-7.492188-4.140625 0-7.496094 3.355469-7.496094 7.492188v29.519531h-78.300781v-127.828125c0-13.457031-10.945312-24.40625-24.402344-24.40625-13.457031 0-24.40625 10.949219-24.40625 24.40625v26.460937c0 7.25-5.894531 13.144532-13.140625 13.144532-7.246093 0-13.144531-5.894532-13.144531-13.144532v-97.265624h224.511719v122.09375c0 6.570312-5.347657 11.917968-11.921875 11.917968-6.574219 0-11.921875-5.347656-11.921875-11.917968v-14.121094c0-13.03125-10.601563-23.636719-23.636719-23.636719-13.03125 0-23.636719 10.605469-23.636719 23.636719v15.847656c0 4.140625 3.355469 7.496094 7.492188 7.496094 4.140625 0 7.496093-3.355469 7.496093-7.496094v-15.847656c0-4.769532 3.878907-8.648438 8.648438-8.648438s8.648438 3.878906 8.648438 8.648438v14.121094c0 14.835937 12.074218 26.90625 26.910156 26.90625 14.835937 0 26.90625-12.070313 26.90625-26.90625v-122.09375h65.105468zm0-265.195313h-480.90625v-53.964844c0-9.921874 8.070313-17.992187 17.992188-17.992187h444.921875c9.921875 0 17.992187 8.074219 17.992187 17.996094zm0 0"/></symbol><symbol id="diseno" viewBox="0 0 512 512"><title>diseno</title><g> <g> <g> <g> <g> <path style="fill:#426175;" d="M289.522,333.702h-67.044c0,103.201-62.877,156.026-62.877,156.026h192.797 C352.398,489.728,289.522,436.903,289.522,333.702z"/> <path style="fill:#CDD6DF;" d="M365.594,497.291H146.406c-5.276,0-9.554-4.277-9.554-9.554v0 c0-16.814,13.631-30.445,30.445-30.445h177.405c16.814,0,30.445,13.631,30.445,30.445v0 C375.147,493.014,370.87,497.291,365.594,497.291z"/> </g> <g> <g> <path style="fill:#426175;" d="M485.185,392.912H26.815c-10.667,0-19.315-8.647-19.315-19.315V34.023 c0-10.667,8.647-19.315,19.315-19.315h458.37c10.667,0,19.315,8.648,19.315,19.315v339.574 C504.5,384.265,495.852,392.912,485.185,392.912z"/> <path style="fill:#2C4456;" d="M485.185,14.709h-53.718c10.667,0,19.315,8.648,19.315,19.315v339.574 c0,10.667-8.647,19.315-19.315,19.315h53.718c10.667,0,19.315-8.648,19.315-19.315V34.023 C504.5,23.356,495.852,14.709,485.185,14.709z"/> <rect x="35.499" y="43.707" style="fill:#F2F2F2;" width="441.002" height="263.489"/> <path style="fill:#CDD6DF;" d="M7.5,337.195v36.403c0,10.667,8.648,19.315,19.315,19.315h458.37 c10.667,0,19.315-8.647,19.315-19.315v-36.403H7.5z"/> <path style="fill:#ABB2BA;" d="M485.185,392.912c10.667,0,19.315-8.647,19.315-19.315v-36.403h-53.718v36.403 c0,10.667-8.647,19.314-19.313,19.315H485.185z"/> </g> </g> </g> </g> </g> <g> <g> <g> <g> <path style="fill:#46D1C0;" d="M313.224,108.653c-17.852,16.378-53.479,20.485-72.232,21.497 c-7.227,0.39-13.295,5.567-14.786,12.649L201.16,261.771l118.971-25.046c7.082-1.491,12.259-7.558,12.649-14.786 c1.013-18.753,5.119-54.381,21.497-72.233L313.224,108.653z M287.019,202.432c-7.323,7.323-19.197,7.323-26.521,0 c-7.323-7.323-7.323-19.197,0-26.521c7.323-7.323,19.197-7.323,26.521,0C294.343,183.235,294.343,195.109,287.019,202.432z"/> </g> </g> <polygon style="fill:#426175;" points="342.083,79.604 313.224,108.653 354.278,149.707 383.327,120.848 "/> </g> <g> <path style="fill:#FD715C;" d="M107.137,117.584h-29.26c-3.241,0-5.869-2.628-5.869-5.869v-29.26 c0-3.241,2.628-5.869,5.869-5.869h29.26c3.241,0,5.869,2.628,5.869,5.869v29.26 C113.006,114.956,110.378,117.584,107.137,117.584z"/> <path style="fill:#FED066;" d="M107.137,191.686h-29.26c-3.241,0-5.869-2.628-5.869-5.869v-29.26 c0-3.241,2.628-5.869,5.869-5.869h29.26c3.241,0,5.869,2.628,5.869,5.869v29.26 C113.006,189.059,110.378,191.686,107.137,191.686z"/> <path style="fill:#88DBFD;" d="M107.137,264.789h-29.26c-3.241,0-5.869-2.628-5.869-5.869v-29.26 c0-3.242,2.628-5.869,5.869-5.869h29.26c3.241,0,5.869,2.628,5.869,5.869v29.26 C113.006,262.161,110.378,264.789,107.137,264.789z"/> </g> </g> </g><g> <path d="M485.186,7.208H26.815C12.029,7.208,0,19.238,0,34.023v339.574c0,14.786,12.029,26.815,26.815,26.815h178.359 c-5.405,17.567-12.967,34.126-22.557,49.38h-15.32c-20.923,0-37.945,17.022-37.945,37.945c0,9.403,7.65,17.054,17.054,17.054 h219.188c9.403,0,17.054-7.65,17.054-17.054c0-20.923-17.021-37.945-37.944-37.945h-15.321 c-9.59-15.256-17.153-31.815-22.556-49.38h178.359c14.785,0,26.814-12.029,26.814-26.815V34.023 C512,19.238,499.971,7.208,485.186,7.208z M26.815,22.208h458.371c6.515,0,11.814,5.3,11.814,11.815v295.672H15V34.023 C15,27.509,20.3,22.208,26.815,22.208z M367.647,487.738c0,1.132-0.921,2.054-2.054,2.054H146.406 c-1.132,0-2.054-0.921-2.054-2.054c0-12.652,10.293-22.945,22.945-22.945h177.406 C357.354,464.793,367.647,475.086,367.647,487.738z M311.9,449.793H200.1c8.796-15.418,15.739-31.96,20.72-49.38h70.36 C296.16,417.831,303.103,434.374,311.9,449.793z M485.186,385.413H26.815c-6.515,0-11.815-5.3-11.815-11.815v-28.902h482v28.902 C497,380.112,491.7,385.413,485.186,385.413z"/> <path d="M35.499,314.696h441.002c4.143,0,7.5-3.358,7.5-7.5V185.418c0-4.142-3.357-7.5-7.5-7.5s-7.5,3.358-7.5,7.5v114.278H42.999 V185.471c0-4.142-3.358-7.5-7.5-7.5s-7.5,3.358-7.5,7.5v121.725C27.999,311.338,31.357,314.696,35.499,314.696z"/> <path d="M35.499,162.919c4.142,0,7.5-3.358,7.5-7.5V51.208h426.002v104.212c0,4.142,3.357,7.5,7.5,7.5s7.5-3.358,7.5-7.5V43.708 c0-4.142-3.357-7.5-7.5-7.5H35.499c-4.142,0-7.5,3.358-7.5,7.5v111.712C27.999,159.562,31.357,162.919,35.499,162.919z"/> <path d="M120.506,82.455c0-7.372-5.998-13.369-13.369-13.369h-29.26c-7.372,0-13.369,5.998-13.369,13.369v29.26 c0,7.372,5.998,13.369,13.369,13.369h29.26c7.372,0,13.369-5.998,13.369-13.369V82.455z M105.506,110.084H79.508V84.086h25.998 V110.084z"/> <path d="M120.506,156.558c0-7.372-5.998-13.37-13.369-13.37h-29.26c-7.372,0-13.369,5.998-13.369,13.37v29.26 c0,7.372,5.998,13.369,13.369,13.369h29.26c7.372,0,13.369-5.998,13.369-13.369V156.558z M105.506,184.187H79.508v-25.999h25.998 V184.187z"/> <path d="M107.137,216.291h-29.26c-7.372,0-13.369,5.998-13.369,13.369v29.26c0,7.372,5.998,13.369,13.369,13.369h29.26 c7.372,0,13.369-5.998,13.369-13.369v-29.26C120.506,222.288,114.508,216.291,107.137,216.291z M105.506,257.289H79.508v-25.998 h25.998V257.289z"/> <path d="M193.662,261.901c0.001,0.046,0.002,0.092,0.004,0.138c0.001,0.023,0.002,0.047,0.003,0.07 c0.003,0.07,0.007,0.141,0.012,0.211c0,0.002,0,0.004,0.001,0.007c0.005,0.07,0.012,0.14,0.019,0.21 c0.001,0.013,0.003,0.025,0.004,0.038c0.007,0.066,0.015,0.131,0.024,0.196c0.001,0.005,0.001,0.011,0.002,0.016 c0.183,1.348,0.733,2.655,1.65,3.761c0.001,0.001,0.002,0.003,0.004,0.004c0.045,0.054,0.09,0.107,0.137,0.16 c0.009,0.01,0.018,0.021,0.027,0.031c0.04,0.045,0.08,0.089,0.121,0.133c0.012,0.013,0.023,0.026,0.035,0.038 c0.05,0.054,0.102,0.107,0.154,0.159c0.045,0.045,0.09,0.089,0.136,0.133c0.031,0.029,0.062,0.058,0.093,0.086 c0.015,0.014,0.029,0.027,0.044,0.041c1.319,1.194,2.96,1.836,4.625,1.926c0.013,0.001,0.027,0.002,0.04,0.002 c0.046,0.002,0.092,0.004,0.139,0.005c0.014,0,0.029,0.001,0.043,0.002c0.061,0.001,0.122,0.002,0.183,0.002 c0.063,0,0.126-0.001,0.189-0.002c0.014,0,0.028-0.001,0.042-0.002c0.049-0.002,0.097-0.003,0.146-0.006 c0.017-0.001,0.035-0.002,0.052-0.003c0.047-0.003,0.093-0.005,0.14-0.009c0.014-0.001,0.028-0.002,0.042-0.004 c0.05-0.004,0.101-0.009,0.151-0.014c0.011-0.001,0.022-0.002,0.033-0.004c0.054-0.006,0.108-0.012,0.162-0.019 c0.007-0.001,0.014-0.002,0.022-0.003c0.227-0.03,0.452-0.07,0.676-0.12l118.861-25.023c10.375-2.184,18.021-11.116,18.594-21.72 c2.379-44.047,14.28-61.77,19.42-67.441l28.924-28.734c1.414-1.405,2.211-3.315,2.214-5.309c0.003-1.993-0.787-3.906-2.196-5.315 l-41.244-41.244c-1.407-1.407-3.314-2.197-5.304-2.197h-0.013c-1.993,0.003-3.903,0.8-5.308,2.214l-28.724,28.914 c-5.66,5.135-23.38,17.051-67.451,19.429c-10.604,0.573-19.536,8.218-21.721,18.594l-25.027,118.88 c-0.057,0.258-0.101,0.517-0.131,0.779c-0.001,0.013-0.003,0.025-0.004,0.038c-0.006,0.058-0.012,0.116-0.017,0.175 c-0.002,0.02-0.003,0.04-0.005,0.06c-0.004,0.056-0.008,0.111-0.011,0.167c-0.001,0.017-0.002,0.034-0.003,0.051 c-0.003,0.068-0.006,0.135-0.007,0.203c-0.001,0.025-0.001,0.05-0.001,0.076c-0.001,0.045-0.001,0.089,0,0.134 C193.661,261.844,193.661,261.873,193.662,261.901z M342.101,90.228l30.603,30.603l-18.408,18.287l-30.481-30.482L342.101,90.228z M233.545,144.345c0.788-3.741,4.016-6.499,7.851-6.706c18.536-1,50.909-4.825,71.248-18.961l31.608,31.609 c-14.135,20.337-17.96,52.71-18.961,71.247c-0.207,3.835-2.965,7.063-6.705,7.851l-94.283,19.849l36.968-36.967 c3.882,2.097,8.185,3.145,12.489,3.145c6.723,0,13.445-2.559,18.563-7.677c10.235-10.236,10.235-26.892,0-37.127 c-4.959-4.958-11.552-7.689-18.563-7.689c-7.013,0-13.605,2.731-18.564,7.689c-4.958,4.958-7.689,11.551-7.689,18.564 c0,4.436,1.093,8.703,3.151,12.496l-36.961,36.961L233.545,144.345z M262.506,189.172c0-3.006,1.171-5.832,3.297-7.957 c2.125-2.125,4.951-3.296,7.957-3.296c3.005,0,5.831,1.17,7.956,3.296c4.388,4.387,4.388,11.526,0,15.914 c-4.386,4.387-11.525,4.389-15.913,0C263.677,195.003,262.506,192.177,262.506,189.172z"/> </g></symbol></svg>