<svg id="Capa_1" enable-background="new 0 0 512 512" height="512" viewBox="0 0 512 512" width="512" xmlns="http://www.w3.org/2000/svg"><g><path d="m290.57 408.5-99.14 30-3.19 11.15c-4.53 15.87-21.74 28.85-38.24 28.85h182z" fill="#3d5168"/><path d="m323.76 449.65-11.76-41.15-56-30-56 30-8.57 30h99.14l3.19 11.15c4.53 15.87 21.74 28.85 38.24 28.85h30c-16.5 0-33.71-12.98-38.24-28.85z" fill="#233952"/><path d="m474.5 33.5h-30v375h30c16.5 0 30-13.5 30-30v-315c0-16.5-13.5-30-30-30z" fill="#3d5168"/><path d="m444.5 33.5h-407c-16.5 0-30 13.5-30 30v315c0 16.5 13.5 30 30 30h407c16.5 0 30-13.5 30-30v-30l-218.5-142.5 218.5-142.5c0-16.5-13.5-30-30-30z" fill="#57697d"/><path d="m474.5 63.5-29.994-.027c0 .007-188.506 142.5-188.506 142.5s188.502 142.497 188.5 142.5c0 0 29.999-.025 29.999-.025.001.001-.002-284.942.001-284.948z" fill="#1e8aff"/><path d="m444.5 63.5-406.912-.027c-.024.014-.045 284.994-.088 285 0 0 406.98-.025 406.99-.025.005.001-.032-284.942.01-284.948z" fill="#54a5ff"/><path d="m474.5 26h-437c-20.678 0-37.5 16.822-37.5 37.5v315c0 20.678 16.822 37.5 37.5 37.5h152.557l-9.027 31.594c-3.625 12.687-17.835 23.406-31.03 23.406h-49c-4.142 0-7.5 3.358-7.5 7.5s3.358 7.5 7.5 7.5h310c4.142 0 7.5-3.358 7.5-7.5s-3.358-7.5-7.5-7.5h-49c-13.195 0-27.405-10.719-31.03-23.406l-9.027-31.594h152.557c20.678 0 37.5-16.822 37.5-37.5v-315c0-20.678-16.822-37.5-37.5-37.5zm-157.953 425.715c2.058 7.204 6.149 13.824 11.512 19.285h-144.118c5.363-5.461 9.454-12.081 11.512-19.285l10.204-35.715h100.685zm180.453-73.215c0 12.407-10.093 22.5-22.5 22.5h-437c-12.407 0-22.5-10.093-22.5-22.5v-315c0-12.407 10.093-22.5 22.5-22.5h437c12.407 0 22.5 10.093 22.5 22.5z"/><path d="m482 348.5v-285c0-4.142-3.358-7.5-7.5-7.5h-437c-4.142 0-7.5 3.358-7.5 7.5v127.5c0 4.142 3.358 7.5 7.5 7.5s7.5-3.358 7.5-7.5v-120h422v270h-422v-120c0-4.142-3.358-7.5-7.5-7.5s-7.5 3.358-7.5 7.5v127.5c0 4.142 3.358 7.5 7.5 7.5h437c4.142 0 7.5-3.358 7.5-7.5z"/><circle cx="475.18" cy="378.473" r="7.5"/><circle cx="445.18" cy="378.473" r="7.5"/></g></svg>